<svg width="36" height="36" viewBox="0 0 36 36" fill="none" xmlns="http://www.w3.org/2000/svg">
<path d="M21.357 23.022C21.4845 23.148 21.4845 23.3535 21.357 23.481C20.6595 24.174 19.566 24.5115 18.0105 24.5115L17.9985 24.5085L17.9865 24.5115C16.4325 24.5115 15.3375 24.174 14.64 23.4795C14.5125 23.3535 14.5125 23.148 14.64 23.022C14.766 22.896 14.973 22.896 15.1005 23.022C15.669 23.5875 16.6125 23.8635 17.9865 23.8635L17.9985 23.8665L18.0105 23.8635C19.383 23.8635 20.3265 23.5875 20.8965 23.022C21.024 22.896 21.231 22.896 21.357 23.022ZM16.197 19.395C16.197 18.6345 15.576 18.0165 14.814 18.0165C14.0505 18.0165 13.4295 18.6345 13.4295 19.395C13.4295 20.154 14.0505 20.772 14.814 20.772C15.576 20.7735 16.197 20.1555 16.197 19.395ZM36 18C36 27.9405 27.9405 36 18 36C8.0595 36 0 27.9405 0 18C0 8.0595 8.0595 0 18 0C27.9405 0 36 8.0595 36 18ZM28.5 17.8065C28.5 16.53 27.4575 15.492 26.175 15.492C25.5495 15.492 24.9825 15.7425 24.564 16.1445C22.98 15.102 20.8365 14.439 18.465 14.3535L19.7625 10.2675L23.277 11.091L23.2725 11.142C23.2725 12.186 24.126 13.035 25.1745 13.035C26.223 13.035 27.075 12.186 27.075 11.142C27.075 10.098 26.223 9.249 25.1745 9.249C24.369 9.249 23.6835 9.7515 23.406 10.455L19.6185 9.567C19.4535 9.5265 19.284 9.6225 19.233 9.7845L17.7855 14.3415C15.3015 14.3715 13.053 15.0405 11.3985 16.113C10.983 15.7305 10.4325 15.4905 9.8235 15.4905C8.5425 15.492 7.5 16.53 7.5 17.8065C7.5 18.6555 7.9665 19.3905 8.652 19.794C8.607 20.04 8.577 20.2905 8.577 20.544C8.577 23.9655 12.7845 26.7495 17.9565 26.7495C23.1285 26.7495 27.336 23.9655 27.336 20.544C27.336 20.304 27.3105 20.0685 27.27 19.836C27.999 19.4445 28.5 18.687 28.5 17.8065ZM21.192 18.018C20.4285 18.018 19.809 18.636 19.809 19.3965C19.809 20.1555 20.43 20.7735 21.192 20.7735C21.954 20.7735 22.575 20.1555 22.575 19.3965C22.575 18.636 21.9555 18.018 21.192 18.018Z" fill="black"/>
</svg>
