<svg width="36" height="36" viewBox="0 0 36 36" fill="none" xmlns="http://www.w3.org/2000/svg">
<path d="M18 0C8.0595 0 0 8.0595 0 18C0 27.9405 8.0595 36 18 36C27.9405 36 36 27.9405 36 18C36 8.0595 27.9405 0 18 0ZM24.6615 25.338C21.5085 25.554 14.4855 25.554 11.337 25.338C7.923 25.104 7.5255 23.433 7.5 18C7.5255 12.5565 7.9275 10.896 11.337 10.662C14.4855 10.446 21.51 10.446 24.6615 10.662C28.077 10.896 28.473 12.567 28.5 18C28.473 23.4435 28.0725 25.104 24.6615 25.338ZM15 14.487L22.3755 17.994L15 21.513V14.487Z" fill="black"/>
</svg>
